<?xml version="1.0" encoding="utf-8"?>
<!-- Generator: Adobe Illustrator 18.1.0, SVG Export Plug-In . SVG Version: 6.00 Build 0)  -->
<!DOCTYPE svg PUBLIC "-//W3C//DTD SVG 1.1//EN" "http://www.w3.org/Graphics/SVG/1.1/DTD/svg11.dtd">
<svg version="1.1" id="Layer_1" xmlns:xpost="http://www.w3.org/1999/xpost"
	 xmlns="http://www.w3.org/2000/svg" xmlns:xlink="http://www.w3.org/1999/xlink" x="0px" y="0px" viewBox="1078.6 172 580 649.3"
	 enable-background="new 1078.6 172 580 649.3" xml:space="preserve">
<g>
	<g>
		<path fill="#FFFFFF" d="M740.8,277.2c42.1,38.6,116-106.9,32-75.4c-49.2,18.5-40.2,44.6-46.9,79.8c-7.9,41.3-21.2,76.2-62.5,94
			c0-27.2,0-54.5,0-81.7c0-15.7,8.5-60.6,0.4-74.8c-18.3-32.4-97.3-25.1-127.4-26.3c-59.6-2.3-250.4-27.3-270,46.6
			c-11.6,43.4-0.2,105.5-0.3,150c-0.2,84.4-0.4,168.8-0.6,253.1c-0.1,31.9-13.7,96.7,2.5,126.6c32.6,60.1,226.8,43.9,285.4,29.8
			c57.7-13.9,109.3-14.1,110.6-74c1-42.5,0-85.1,0-127.6c0-34.3-9.1-82.8,0-115.8c10.1-36.4,52.3-49.8,77.7-81.3
			c13.2-16.4,44.8-65.8,32.5-86.8c-11.6-19.8-37.4-11.4-49.4,6.2C725.9,309.3,730.5,284.6,740.8,277.2
			C748,283.8,735.2,281.2,740.8,277.2z M778.6,226.6c4.8-6.8,10-13.3,15.6-19.4c-14.4,22.8-31.5,42.4-50.8,61.2
			C755.7,255.5,769.3,241.8,778.6,226.6C783,219.4,770.4,240,778.6,226.6z M280.4,231.2c27.4-45.9,181.5-25.4,225.9-24.4
			c32.9,0.8,113.6-8.9,142.3,15.6c-15.6,19.9-68.6,26.7-89,31.8c-47.2,11.7-85.2,7.8-132.8,7.8C418.8,262,267.7,252.5,280.4,231.2
			C286,221.8,279.8,232.2,280.4,231.2z M649.6,756.6c-51.1,25.2-122.3,38-179,35.6c-48.9-2.1-128.4,8.4-171.5-18.2
			c-35.1-21.7-20.5-70.9-20.5-109.8c0-137.3,0-274.7,0-412c52.3,34.4,140.7,26.2,201.3,27.6c54.5,1.3,121.6-13.7,169.1-40.4
			c0,40,16.2,126.1-15.1,145.3c-18.3,11.2-40,0.1-56.2,18c-14.1,15.5-15.3,51.3-10.9,70.3c15.3,66.6,49.1,31.9,82.4,3.3
			C649.4,569.7,649.5,663.1,649.6,756.6z M752,306.2c7.1-0.9,13,1,17.8,5.6c0,9.2-30.4,5.8-35,1.2
			C738.5,306.7,743.6,306.2,752,306.2z M726.4,339c18-27.1,12.3-14.5,35.6-18.6c-3,59.1-45.6,90.2-89.1,122.4
			c-18.6,13.8-64.8,64.7-84.2,51.5c-14.4-9.8-11.9-56-5.4-68.9c10.6-21.1,14.5-15.7,34.1-22.9C663.1,385.7,697,381.6,726.4,339
			C730.8,332.4,709.8,363,726.4,339z"/>
	</g>
</g>
<g opacity="0.5">
	<path fill="#FFFFFF" d="M426,256.2c42.5,0,140.3,15.2,172.6-18.4c17.6-18.4,3.4-15.3-18.7-20.4c-59.3-13.7-133.5-7.3-193.9-3.1
		c-9,0.6-68.8,0.4-62.3,20.1C331.4,257.9,408.6,256.2,426,256.2z M329.8,232.8c21.5-28.3,124.4-13,156.6-12.6
		c26.6,0.4,85.9-7.9,111,8.2c-32,32-119.8,20-160.8,20C424.9,248.4,329.8,250.9,329.8,232.8C333.6,227.8,329.8,233.4,329.8,232.8z"
		/>
</g>
<g opacity="0.5">
	<path fill="#FFFFFF" d="M429.4,245.6c32.5,0,105.9,11.3,130.2-13c-12,12-198.1-36-206.4,0C348.3,242.4,427.6,245.6,429.4,245.6z
		 M361,234c25.7-20.2,162.6-15.5,191.8-2.2c-32.5,16.3-79.8,9.8-115.2,9.8C412.3,242,384.1,234,361,234
		C363.8,231.8,360.4,234,361,234z"/>
</g>
<g opacity="0.5">
	<path fill="#FFFFFF" d="M443.8,238.4c20.2,0,42.7,1.8,60.6-6.2c-3.6-7.2-93.9-5.5-95,0.4C409.4,239,448.7,238.4,443.8,238.4z
		 M412.2,233.4c13.6-13.6,69.4-1.2,88-1.2c-9.1,9.1-40.6,4.4-53,4.4C440,236.9,417.8,238.9,412.2,233.4z"/>
</g>
<g opacity="0.5">
	<g>
		<path fill="#FFFFFF" d="M478.4,771.2c11.9,0-7.5-249.3-8-266.9c-1.9-66.9-6.2-166.7,42.4-220.9c37,70.1,26.2,171.3,21.8,247.1
			c-4.7,81.1-9.3,159.6,1,240.5c-40.9,6.5-14.1-182.9-13.1-196.5c6.3-88.4,17.2-188.2-11.9-273.9c-44,76-33.4,182.4-27.6,266
			C484.6,590.5,516.1,771.2,478.4,771.2z"/>
	</g>
</g>
<g opacity="0.5">
	<g>
		<path fill="#FFFFFF" d="M321.6,765.6c-62.9,0-25.7-428.9-26.6-479.4c2.2,0,4.4,0,6.6,0c1.8,96.3-1.8,192.5-4.3,288.8
			c-1,37.4-19.7,153,16.5,181.8c-10.8-8.5,28-187,30.1-206c9.4-82.9,29.8-184.4,1.7-265.6C395.3,304.4,354.1,765.6,321.6,765.6z"/>
	</g>
</g>
<g opacity="0.5">
	<g>
		<path fill="#FFFFFF" d="M326.6,562.6c-5.2,9.3-17.5-78.7-17.8-87.4c-1.3-39.8-11.6-109.5,4.5-146.9c25.8-59.9,34.9,56.5,35.3,79.9
			C349.4,459.9,341.2,512.9,326.6,562.6z M323.8,316.2c-23.3,41.2-20.2,97.6-16.9,143c1.4,20.3-0.9,81.3,15.7,96.8
			c-11.3-10.6,10.8-110.1,11.9-126C335.3,418.9,332.1,307.9,323.8,316.2C283.8,386.8,324.4,315.6,323.8,316.2z"/>
	</g>
</g>
<g opacity="0.5">
	<g>
		<path fill="#FFFFFF" d="M447.8,495.2c4.8-8.5,17.6,83.2,17.9,92.7c1.2,41.1,12.9,114.9-4.7,153.2c-28.3,61.4-35.8-73.9-35.4-98.6
			C426.3,593,434.3,542.8,447.8,495.2z M450,752.2c23.7-43.5,20.2-102,17-149.7c-1.3-19.2,0.9-86.6-15.7-100.7
			c11.4,9.6-10.8,116.1-11.9,131.4C438.6,644.5,442.6,759.6,450,752.2C490,678.8,449.4,752.8,450,752.2z"/>
	</g>
</g>
<g opacity="0.5">
	<g>
		<path fill="#FFFFFF" d="M395.4,766.6c-58.7-13-22.8-160.1-19.4-197.9c4.5-50.2,7.9-100.6,8.3-151c0.1-21.8-10.1-128.8,3.3-128.3
			c9.7,99.4,4.7,198.8-4.5,298.1c-3.8,40.4-12.4,83.5-8.1,124C377.7,736.2,392.9,749.8,395.4,766.6z"/>
	</g>
</g>
<g opacity="0.5">
	<g>
		<path fill="#FFFFFF" d="M539,285.6c58.7,13,22.8,160.1,19.4,197.9c-4.5,50.2-7.9,100.6-8.3,151c-0.1,21.8,10.1,128.8-3.3,128.3
			c-9.7-99.4-4.7-198.8,4.5-298.1c3.8-40.4,12.4-83.5,8.1-124C556.7,316,541.6,302.4,539,285.6z"/>
	</g>
</g>
<g opacity="0.5">
	<g>
		<path fill="#FFFFFF" d="M397.2,720.6c16.6,0,8.2-382,8.2-422C409.4,342.2,438.6,720.6,397.2,720.6z"/>
	</g>
</g>
<g opacity="0.5">
	<path fill="#FFFFFF" d="M590.6,398.6c0.3-8,5.5-64.5,10-60c0.9-4.2,0.2-8-2.2-11.6c-19.6,0-16.4,68.9-16.6,76.2
		C584.8,401.7,587.7,400.1,590.6,398.6z"/>
</g>
<g opacity="0.5">
	<path fill="#FFFFFF" d="M587.4,503c-2.9-1.1-5.9-2.3-8.8-3.4c0,85.7,2.3,170.4,10,255.8C588.6,671.3,587.4,587.1,587.4,503z"/>
</g>
<g opacity="0.5">
	<path fill="#FFFFFF" d="M628.6,487c-27.8,20.4-4.4,128.8-5.2,161.8c-0.8,35-19,56.3-23.6,80C663.3,717.7,626.9,529.5,628.6,487z"/>
</g>
<g opacity="0.5">
	<path fill="#FFFFFF" d="M621.8,393.6c2.3-44.9,5.8-89.8,10.6-134.6C615.2,276.2,606.8,390.8,621.8,393.6z"/>
</g>
<g opacity="0.5">
	<path fill="#FFFFFF" d="M504,353.4c17.5,0,16.9,133.6,0,133.6C486.6,487,487.2,353.4,504,353.4z"/>
</g>
<g opacity="0.5">
	<path fill="#FFFFFF" d="M456.2,479.8c-39.7,0-35.6-166.8-35.6-189.6c14.2,0.6,14,111.6,18.6,134.8
		C443.2,444.7,451.8,462.6,456.2,479.8z"/>
</g>
<g opacity="0.5">
	<g>
		<path fill="#FFFFFF" d="M446.6,415.2c9.4-42.5,12.8-86.8,12.8-130.2c2.8,0,5.6,0,8.4,0C467.8,328.8,457.6,373,446.6,415.2z"/>
	</g>
</g>
<g opacity="0.5">
	<g>
		<path fill="#FFFFFF" d="M624.6,426.8c-2.5,0-33.4-1.8-33.4-6.2c13-8.1,27.2-0.4,45.6-2.1c47.5-4.2,84.1-42,101.6-84.1
			c2.1,0.9,4.1,1.9,6.2,2.8C724.3,386.2,680,426.8,624.6,426.8z"/>
	</g>
</g>
<g opacity="0.5">
	<path fill="#FFFFFF" d="M596.8,481.4c-22.3-14.6,102.9-62,113.6-82.8c1.9,1.1,3.7,2.3,5.6,3.4C699,434.9,596.8,445.1,596.8,481.4z"
		/>
</g>
<g>
	<g>
		<path fill="#595959" d="M1571.4,277.2c42.1,38.6,116-106.9,32-75.4c-49.2,18.5-40.2,44.6-46.9,79.8c-7.9,41.3-21.2,76.2-62.5,94
			c0-27.2,0-54.5,0-81.7c0-15.7,8.5-60.6,0.4-74.8c-18.3-32.4-97.3-25.1-127.4-26.3c-59.6-2.3-250.4-27.3-270,46.6
			c-11.6,43.4-0.2,105.5-0.3,150c-0.2,84.4-0.4,168.8-0.6,253.1c-0.1,31.9-13.7,96.7,2.5,126.6c32.6,60.1,226.8,43.9,285.4,29.8
			c57.7-13.9,109.3-14.1,110.6-74c1-42.5,0-85.1,0-127.6c0-34.3-9.1-82.8,0-115.8c10.1-36.4,52.3-49.8,77.7-81.3
			c13.2-16.4,44.8-65.8,32.5-86.8c-11.6-19.8-37.4-11.4-49.4,6.2C1556.5,309.3,1561.1,284.6,1571.4,277.2
			C1578.6,283.8,1565.8,281.2,1571.4,277.2z M1609.2,226.6c4.8-6.8,10-13.3,15.6-19.4c-14.4,22.8-31.5,42.4-50.8,61.2
			C1586.2,255.5,1599.9,241.8,1609.2,226.6C1613.6,219.4,1601,240,1609.2,226.6z M1111,231.2c27.4-45.9,181.5-25.4,225.9-24.4
			c32.9,0.8,113.6-8.9,142.3,15.6c-15.6,19.9-68.6,26.7-89,31.8c-47.2,11.7-85.2,7.8-132.8,7.8C1249.4,262,1098.2,252.5,1111,231.2
			C1116.6,221.8,1110.4,232.2,1111,231.2z M1480.2,756.6c-51.1,25.2-122.3,38-179,35.6c-48.9-2.1-128.4,8.4-171.5-18.2
			c-35.1-21.7-20.5-70.9-20.5-109.8c0-137.3,0-274.7,0-412c52.3,34.4,140.7,26.2,201.3,27.6c54.5,1.3,121.6-13.7,169.1-40.4
			c0,40,16.2,126.1-15.1,145.3c-18.3,11.2-40,0.1-56.2,18c-14.1,15.5-15.3,51.3-10.9,70.3c15.3,66.6,49.1,31.9,82.4,3.3
			C1479.9,569.7,1480.1,663.1,1480.2,756.6z M1582.6,306.2c7.1-0.9,13,1,17.8,5.6c0,9.2-30.4,5.8-35,1.2
			C1569.1,306.7,1574.1,306.2,1582.6,306.2z M1557,339c18-27.1,12.3-14.5,35.6-18.6c-3,59.1-45.6,90.2-89.1,122.4
			c-18.6,13.8-64.8,64.7-84.2,51.5c-14.4-9.8-11.9-56-5.4-68.9c10.6-21.1,14.5-15.7,34.1-22.9C1493.7,385.7,1527.5,381.6,1557,339
			C1561.4,332.4,1540.4,363,1557,339z"/>
	</g>
</g>
<g opacity="0.5">
	<path fill="#595959" d="M1256.6,256.2c42.5,0,140.3,15.2,172.6-18.4c17.6-18.4,3.4-15.3-18.7-20.4c-59.3-13.7-133.5-7.3-193.9-3.1
		c-9,0.6-68.8,0.4-62.3,20.1C1162,257.9,1239.2,256.2,1256.6,256.2z M1160.4,232.8c21.5-28.3,124.4-13,156.6-12.6
		c26.6,0.4,85.9-7.9,111,8.2c-32,32-119.8,20-160.8,20C1255.5,248.4,1160.4,250.9,1160.4,232.8
		C1164.2,227.8,1160.4,233.4,1160.4,232.8z"/>
</g>
<g opacity="0.5">
	<path fill="#595959" d="M1260,245.6c32.5,0,105.9,11.3,130.2-13c-12,12-198.1-36-206.4,0C1178.9,242.4,1258.2,245.6,1260,245.6z
		 M1191.6,234c25.7-20.2,162.6-15.5,191.8-2.2c-32.5,16.3-79.8,9.8-115.2,9.8C1242.9,242,1214.6,234,1191.6,234
		C1194.4,231.8,1191,234,1191.6,234z"/>
</g>
<g opacity="0.5">
	<path fill="#595959" d="M1274.4,238.4c20.2,0,42.7,1.8,60.6-6.2c-3.6-7.2-93.9-5.5-95,0.4C1240,239,1279.3,238.4,1274.4,238.4z
		 M1242.8,233.4c13.6-13.6,69.4-1.2,88-1.2c-9.1,9.1-40.6,4.4-53,4.4C1270.6,236.9,1248.3,238.9,1242.8,233.4z"/>
</g>
<g opacity="0.5">
	<g>
		<path fill="#595959" d="M1309,771.2c11.9,0-7.5-249.3-8-266.9c-1.9-66.9-6.2-166.7,42.4-220.9c37,70.1,26.2,171.3,21.8,247.1
			c-4.7,81.1-9.3,159.6,1,240.5c-40.9,6.5-14.1-182.9-13.1-196.5c6.3-88.4,17.2-188.2-11.9-273.9c-44,76-33.4,182.4-27.6,266
			C1315.2,590.5,1346.7,771.2,1309,771.2z"/>
	</g>
</g>
<g opacity="0.5">
	<g>
		<path fill="#595959" d="M1152.2,765.6c-62.9,0-25.7-428.9-26.6-479.4c2.2,0,4.4,0,6.6,0c1.8,96.3-1.8,192.5-4.3,288.8
			c-1,37.4-19.7,153,16.5,181.8c-10.8-8.5,28-187,30.1-206c9.4-82.9,29.8-184.4,1.7-265.6C1225.8,304.4,1184.6,765.6,1152.2,765.6z"
			/>
	</g>
</g>
<g opacity="0.5">
	<g>
		<path fill="#595959" d="M1157.2,562.6c-5.2,9.3-17.5-78.7-17.8-87.4c-1.3-39.8-11.6-109.5,4.5-146.9
			c25.8-59.9,34.9,56.5,35.3,79.9C1180,459.9,1171.8,512.9,1157.2,562.6z M1154.4,316.2c-23.3,41.2-20.2,97.6-16.9,143
			c1.4,20.3-0.9,81.3,15.7,96.8c-11.3-10.6,10.8-110.1,11.9-126C1165.8,418.9,1162.7,307.9,1154.4,316.2
			C1114.4,386.8,1155,315.6,1154.4,316.2z"/>
	</g>
</g>
<g opacity="0.5">
	<g>
		<path fill="#595959" d="M1278.4,495.2c4.8-8.5,17.6,83.2,17.9,92.7c1.2,41.1,12.9,114.9-4.7,153.2c-28.3,61.4-35.8-73.9-35.4-98.6
			C1256.9,593,1264.9,542.8,1278.4,495.2z M1280.6,752.2c23.7-43.5,20.2-102,17-149.7c-1.3-19.2,0.9-86.6-15.7-100.7
			c11.4,9.6-10.8,116.1-11.9,131.4C1269.2,644.5,1273.2,759.6,1280.6,752.2C1320.6,678.8,1280,752.8,1280.6,752.2z"/>
	</g>
</g>
<g opacity="0.5">
	<g>
		<path fill="#595959" d="M1226,766.6c-58.7-13-22.8-160.1-19.4-197.9c4.5-50.2,7.9-100.6,8.3-151c0.1-21.8-10.1-128.8,3.3-128.3
			c9.7,99.4,4.7,198.8-4.5,298.1c-3.8,40.4-12.4,83.5-8.1,124C1208.3,736.2,1223.4,749.8,1226,766.6z"/>
	</g>
</g>
<g opacity="0.5">
	<g>
		<path fill="#595959" d="M1369.6,285.6c58.7,13,22.8,160.1,19.4,197.9c-4.5,50.2-7.9,100.6-8.3,151c-0.1,21.8,10.1,128.8-3.3,128.3
			c-9.7-99.4-4.7-198.8,4.5-298.1c3.8-40.4,12.4-83.5,8.1-124C1387.3,316,1372.2,302.4,1369.6,285.6z"/>
	</g>
</g>
<g opacity="0.5">
	<g>
		<path fill="#595959" d="M1227.8,720.6c16.6,0,8.2-382,8.2-422C1239.9,342.2,1269.2,720.6,1227.8,720.6z"/>
	</g>
</g>
<g opacity="0.5">
	<path fill="#595959" d="M1421.2,398.6c0.3-8,5.5-64.5,10-60c0.9-4.2,0.2-8-2.2-11.6c-19.6,0-16.4,68.9-16.6,76.2
		C1415.3,401.7,1418.3,400.1,1421.2,398.6z"/>
</g>
<g opacity="0.5">
	<path fill="#595959" d="M1418,503c-2.9-1.1-5.9-2.3-8.8-3.4c0,85.7,2.3,170.4,10,255.8C1419.2,671.3,1418,587.1,1418,503z"/>
</g>
<g opacity="0.5">
	<path fill="#595959" d="M1459.2,487c-27.8,20.4-4.4,128.8-5.2,161.8c-0.8,35-19,56.3-23.6,80C1493.9,717.7,1457.5,529.5,1459.2,487
		z"/>
</g>
<g opacity="0.5">
	<path fill="#595959" d="M1452.4,393.6c2.3-44.9,5.8-89.8,10.6-134.6C1445.7,276.2,1437.3,390.8,1452.4,393.6z"/>
</g>
<g opacity="0.5">
	<path fill="#595959" d="M1334.6,353.4c17.5,0,16.9,133.6,0,133.6C1317.1,487,1317.7,353.4,1334.6,353.4z"/>
</g>
<g opacity="0.5">
	<path fill="#595959" d="M1286.8,479.8c-39.7,0-35.6-166.8-35.6-189.6c14.2,0.6,14,111.6,18.6,134.8
		C1273.7,444.7,1282.3,462.6,1286.8,479.8z"/>
</g>
<g opacity="0.5">
	<g>
		<path fill="#595959" d="M1277.2,415.2c9.4-42.5,12.8-86.8,12.8-130.2c2.8,0,5.6,0,8.4,0C1298.4,328.8,1288.1,373,1277.2,415.2z"/>
	</g>
</g>
<g opacity="0.5">
	<g>
		<path fill="#595959" d="M1455.2,426.8c-2.5,0-33.4-1.8-33.4-6.2c13-8.1,27.2-0.4,45.6-2.1c47.5-4.2,84.1-42,101.6-84.1
			c2.1,0.9,4.1,1.9,6.2,2.8C1554.8,386.2,1510.6,426.8,1455.2,426.8z"/>
	</g>
</g>
<g opacity="0.5">
	<path fill="#595959" d="M1427.4,481.4c-22.3-14.6,102.9-62,113.6-82.8c1.9,1.1,3.7,2.3,5.6,3.4
		C1529.5,434.9,1427.4,445.1,1427.4,481.4z"/>
</g>
</svg>
